<?xml version="1.0" standalone="no"?>
<!DOCTYPE svg PUBLIC "-//W3C//DTD SVG 20010904//EN"
 "http://www.w3.org/TR/2001/REC-SVG-20010904/DTD/svg10.dtd">
<svg version="1.0" xmlns="http://www.w3.org/2000/svg"
 width="3093.000000pt" height="3991.000000pt" viewBox="0 0 3093.000000 3991.000000"
 preserveAspectRatio="xMidYMid meet">

<g transform="translate(0.000000,3991.000000) scale(0.100000,-0.100000)"
fill="#000000" stroke="none">
<path d="M0 19955 l0 -19955 15465 0 15465 0 0 19955 0 19955 -7370 0 c-4053
0 -7370 -2 -7370 -5 0 -3 6 -14 13 -26 11 -18 8 -24 -19 -48 -17 -16 -37 -30
-44 -33 -11 -3 -11 -11 -2 -38 11 -29 9 -38 -13 -76 -22 -37 -24 -51 -20 -115
8 -128 15 -169 32 -169 12 0 13 3 5 13 -6 7 -11 44 -11 83 1 90 17 118 82 139
28 9 57 25 66 36 11 13 20 16 31 9 12 -7 13 -16 2 -55 -7 -25 -12 -58 -12 -73
0 -54 -30 -71 -42 -24 -6 18 -3 30 6 37 9 7 12 21 9 38 -7 37 -21 43 -32 14
-6 -14 -15 -27 -22 -29 -7 -2 -14 -29 -17 -60 -3 -46 -1 -58 16 -74 18 -17 26
-46 23 -81 -1 -7 -17 -19 -36 -27 -19 -8 -35 -22 -35 -31 0 -9 -4 -14 -10 -10
-10 6 -43 -49 -33 -58 3 -3 6 -21 8 -39 2 -32 3 -33 51 -33 47 0 49 -2 59 -32
5 -18 13 -33 17 -33 15 0 23 -4 36 -16 17 -17 15 -24 -7 -24 -10 0 -24 -7 -31
-15 -10 -12 -7 -23 14 -59 30 -52 34 -94 9 -103 -28 -10 -33 -26 -18 -50 20
-30 19 -33 -14 -44 -44 -15 -92 -105 -108 -199 -6 -41 -11 -76 -9 -77 1 -1 13
-4 27 -6 27 -4 42 -47 16 -47 -8 0 -18 -7 -21 -16 -3 -8 -10 -12 -16 -9 -14 8
-25 -24 -13 -36 6 -6 18 -2 33 11 18 16 33 20 64 16 23 -3 49 -5 59 -5 23 -1
22 -22 -3 -49 -27 -28 -26 -33 15 -72 19 -18 32 -37 29 -41 -2 -4 -27 -15 -55
-24 -57 -19 -69 -39 -69 -113 0 -26 -7 -60 -15 -76 -13 -24 -13 -30 -1 -40 22
-18 26 -57 10 -88 -17 -33 -17 -33 13 -42 19 -6 25 -2 33 18 13 36 37 33 42
-5 5 -33 -25 -89 -64 -120 -14 -11 -19 -25 -16 -49 4 -44 22 -49 38 -10 13 31
40 42 40 16 0 -8 5 -16 12 -18 10 -4 10 -13 0 -45 -17 -58 -15 -98 8 -140 23
-43 24 -73 5 -123 -11 -30 -14 -32 -20 -15 -4 11 -11 31 -17 45 l-10 25 -34
-37 c-41 -45 -42 -53 -9 -74 17 -11 25 -25 25 -44 0 -23 5 -29 30 -33 35 -8
41 -40 11 -57 -28 -15 -31 -13 -42 20 -6 17 -15 30 -20 30 -17 0 -30 -53 -23
-96 3 -23 3 -61 -1 -84 -6 -34 -10 -40 -25 -35 -13 4 -23 -1 -31 -16 -10 -19
-9 -25 7 -36 10 -7 27 -13 38 -13 34 0 50 -14 32 -29 -8 -7 -20 -10 -26 -6 -5
3 -10 2 -10 -4 0 -5 -12 -16 -27 -23 -14 -7 -28 -18 -30 -25 -8 -24 87 -34
127 -13 18 10 20 8 20 -27 0 -21 -7 -49 -16 -61 -8 -12 -12 -27 -8 -33 8 -14
-14 -29 -33 -22 -9 4 -12 14 -9 28 5 20 1 23 -27 28 -17 2 -41 1 -52 -3 -18
-7 -18 -8 5 -16 14 -4 28 -7 32 -6 13 3 9 -11 -9 -30 -16 -18 -16 -22 6 -63
13 -24 20 -49 16 -54 -3 -6 -1 -28 6 -49 7 -20 13 -68 14 -107 0 -38 6 -80 13
-92 9 -17 10 -28 2 -43 -16 -30 -8 -124 11 -128 13 -2 15 11 15 78 -1 44 1 75
2 70 2 -6 7 -8 12 -5 9 6 48 -73 56 -115 5 -22 2 -29 -15 -35 -14 -4 -21 -15
-21 -31 0 -24 -18 -32 -35 -15 -6 6 -31 0 -65 -17 -65 -32 -75 -59 -36 -95 21
-20 26 -34 27 -83 2 -44 7 -62 21 -74 27 -21 15 -61 -23 -84 -28 -16 -30 -21
-27 -69 3 -48 5 -52 36 -61 31 -9 42 -29 22 -41 -6 -3 1 -23 16 -46 30 -48 25
-70 -21 -94 -30 -17 -33 -22 -28 -49 3 -17 7 -33 9 -35 2 -2 -7 -22 -20 -45
-21 -38 -23 -50 -18 -148 5 -123 22 -147 22 -33 0 70 2 78 27 100 49 43 79 32
57 -20 -21 -51 -18 -117 6 -138 29 -25 28 -85 -2 -96 -13 -5 -40 -25 -62 -44
l-38 -35 13 -51 13 -52 41 2 c22 2 46 -1 53 -5 17 -10 15 -46 -3 -46 -19 0
-19 -16 0 -24 8 -3 15 -18 15 -33 0 -15 11 -48 25 -72 14 -23 25 -56 25 -72 0
-24 -4 -28 -22 -26 -28 3 -37 -32 -13 -49 22 -17 13 -41 -17 -46 -14 -2 -29
-15 -38 -33 -8 -16 -25 -44 -36 -60 -12 -17 -26 -57 -32 -90 -5 -33 -11 -66
-13 -74 -2 -8 7 -17 25 -22 37 -10 46 -5 46 31 0 32 44 105 63 105 7 0 13 -14
15 -32 2 -24 -2 -34 -17 -43 -13 -6 -21 -21 -21 -36 0 -17 -8 -27 -25 -34 -14
-5 -25 -16 -25 -23 0 -8 -11 -19 -25 -25 -14 -7 -25 -20 -25 -31 0 -28 17 -35
30 -14 10 15 22 17 71 15 43 -3 59 -8 59 -18 0 -8 -3 -14 -7 -14 -5 0 -14 -12
-21 -27 -11 -25 -9 -30 23 -63 19 -20 35 -39 35 -42 0 -4 -16 -10 -35 -14 -19
-3 -38 -10 -41 -15 -3 -5 -13 -9 -24 -9 -20 0 -32 33 -25 72 4 20 -2 34 -21
53 -31 32 -44 25 -42 -23 0 -20 -2 -51 -6 -69 -7 -31 -6 -32 31 -35 34 -3 38
-6 36 -28 -1 -14 -3 -34 -4 -45 -5 -90 -11 -113 -32 -120 -22 -7 -22 -7 2 -14
34 -9 46 -55 23 -93 -15 -25 -15 -30 -2 -38 22 -14 28 -12 46 15 22 34 41 31
46 -7 5 -32 -4 -58 -29 -86 -7 -7 -13 -18 -13 -23 0 -5 -7 -9 -15 -9 -8 0 -19
-9 -25 -21 -9 -16 -8 -26 6 -46 l17 -26 14 26 c14 28 28 33 52 18 10 -6 12
-19 7 -42 -18 -89 -18 -109 3 -152 24 -50 25 -66 8 -125 -12 -39 -27 -48 -27
-16 0 7 -5 25 -10 40 l-11 28 -29 -33 c-35 -38 -37 -55 -11 -73 11 -8 21 -27
23 -43 2 -24 8 -31 31 -33 22 -3 27 -8 27 -30 0 -17 -8 -32 -20 -40 -25 -15
-40 -8 -40 18 0 27 -21 36 -35 16 -8 -11 -11 -47 -10 -106 3 -83 2 -89 -17
-92 -12 -2 -26 -11 -32 -21 -14 -23 6 -37 52 -37 29 0 33 -3 30 -22 -2 -14
-11 -24 -23 -26 -11 -2 -35 -11 -52 -20 -33 -16 -33 -16 -10 -29 26 -14 76
-16 96 -4 9 6 12 18 7 36 -5 20 -3 26 6 23 18 -6 23 -111 6 -140 -6 -13 -11
-31 -9 -41 1 -9 -5 -20 -13 -23 -21 -8 -47 14 -44 35 2 12 -6 17 -32 18 -30 2
-32 1 -12 -7 26 -11 28 -27 5 -52 -10 -12 -13 -22 -8 -26 28 -20 46 -98 49
-212 3 -82 12 -110 37 -110 12 0 19 -7 19 -19 0 -10 7 -21 15 -25 8 -3 15 -12
15 -21 0 -8 4 -15 9 -15 5 0 11 -15 13 -32 3 -18 8 -41 13 -50 5 -13 2 -20
-11 -25 -39 -14 -47 -65 -14 -83 22 -12 27 -54 10 -80 -9 -13 -11 -13 -20 0
-5 8 -12 29 -16 47 -3 17 -17 41 -30 54 -22 20 -25 21 -41 7 -10 -8 -30 -18
-45 -22 -22 -5 -28 -12 -28 -34 0 -54 55 -72 84 -27 23 35 34 31 38 -12 2 -30
7 -39 25 -41 12 -2 25 -12 28 -22 3 -10 12 -21 20 -24 8 -3 15 -12 15 -21 0
-20 -10 -19 -25 2 -11 15 -14 10 -20 -40 -5 -41 -4 -62 5 -72 10 -12 10 -19 2
-27 -7 -7 -12 -20 -12 -29 0 -10 -14 -27 -30 -39 -43 -31 -49 -48 -34 -105 7
-27 11 -35 9 -18 -3 24 0 35 14 42 23 13 61 3 61 -16 0 -8 10 -23 22 -33 l23
-18 -28 -13 c-21 -9 -30 -10 -39 -1 -29 29 -51 -1 -28 -38 8 -12 11 -12 28 3
26 24 47 21 66 -8 24 -37 20 -53 -15 -57 -45 -4 -55 -36 -23 -73 13 -15 24
-33 24 -38 0 -6 10 -21 21 -33 l21 -23 -44 -21 c-56 -26 -94 -92 -84 -146 4
-19 11 -34 17 -34 6 0 6 -7 1 -17 -11 -21 8 -72 32 -92 9 -8 16 -22 16 -31 0
-10 4 -20 9 -22 5 -2 5 -26 -1 -60 -8 -49 -14 -58 -39 -68 -16 -7 -29 -16 -29
-20 0 -10 82 0 95 11 19 18 28 8 10 -11 -16 -18 -17 -23 -5 -45 11 -21 11 -30
-3 -62 -9 -21 -21 -64 -27 -96 -7 -32 -18 -61 -26 -64 -8 -3 -14 -16 -14 -30
0 -14 -10 -33 -21 -42 l-22 -18 30 -21 31 -22 0 23 c0 38 8 59 27 73 27 20 37
7 32 -45 -7 -68 -16 -84 -43 -78 -18 3 -25 -2 -34 -26 -15 -44 -13 -64 12 -97
19 -26 20 -34 10 -67 -6 -21 -9 -48 -6 -60 5 -18 1 -22 -23 -25 -20 -2 -29 -9
-31 -26 -5 -35 25 -39 52 -7 24 28 46 27 46 -1 0 -8 -9 -32 -20 -54 -24 -47
-26 -76 -4 -84 13 -5 15 -17 11 -59 -2 -28 -10 -66 -17 -83 -12 -27 -11 -36 4
-68 17 -35 16 -37 -5 -76 -13 -22 -33 -47 -46 -55 -18 -12 -23 -25 -23 -55 0
-22 5 -40 10 -40 6 0 10 5 10 10 0 6 11 15 25 22 19 8 28 8 40 -2 22 -18 19
-73 -6 -96 -21 -19 -21 -18 -39 4 -26 31 -40 27 -40 -12 0 -18 -3 -48 -6 -65
-6 -31 -6 -31 37 -31 24 0 50 -4 58 -9 24 -15 -6 -41 -48 -41 -32 -1 -39 -6
-63 -46 -16 -25 -23 -42 -17 -39 6 4 20 -2 32 -13 13 -12 39 -22 62 -24 29 -2
41 -8 43 -21 3 -15 0 -18 -18 -12 -17 5 -21 4 -15 -6 5 -7 -2 -5 -16 4 -13 9
-27 17 -31 17 -14 0 -9 -45 8 -79 15 -29 15 -33 0 -44 -8 -7 -22 -28 -30 -48
-15 -35 -14 -37 8 -47 37 -16 42 -59 11 -89 -14 -14 -25 -37 -25 -51 0 -14 -7
-30 -17 -37 -22 -16 -8 -35 26 -35 15 0 35 -6 44 -13 17 -11 17 -15 2 -45 -11
-20 -14 -43 -10 -61 9 -42 -10 -74 -41 -68 -32 6 -35 -11 -7 -52 21 -31 22
-36 8 -51 -21 -24 -19 -47 8 -61 35 -19 37 -31 11 -51 -13 -11 -24 -26 -24
-33 0 -8 -13 -15 -31 -17 -43 -4 -59 -30 -35 -56 17 -19 16 -21 -4 -40 -22
-20 -22 -21 -4 -46 24 -33 45 -29 63 12 18 39 54 42 59 5 2 -13 7 -23 12 -23
5 0 12 -16 16 -36 8 -45 -12 -64 -37 -35 -9 11 -32 20 -55 23 -37 3 -39 2 -39
-27 0 -22 5 -31 20 -34 24 -4 35 -19 35 -48 0 -17 -10 -27 -35 -37 -40 -17
-44 -29 -16 -48 10 -8 21 -25 23 -38 2 -17 10 -26 26 -28 12 -2 22 -8 22 -13
0 -5 5 -9 10 -9 6 0 10 8 10 17 0 12 3 14 11 6 16 -16 26 -138 10 -129 -7 5
-16 19 -21 32 -15 38 -27 28 -33 -27 -7 -58 -1 -75 34 -92 21 -11 24 -20 27
-78 3 -62 1 -67 -20 -73 -17 -4 -29 1 -44 18 -12 14 -25 22 -28 19 -13 -13 -6
-71 9 -77 22 -8 18 -51 -7 -68 -27 -18 -16 -38 22 -38 37 0 45 -13 24 -45 -11
-17 -25 -25 -45 -25 -17 0 -34 -8 -43 -22 -15 -20 -14 -24 6 -45 16 -17 23
-40 26 -83 2 -33 7 -60 11 -60 4 0 12 14 18 31 13 35 36 35 41 0 2 -14 -5 -31
-17 -42 -12 -11 -21 -24 -21 -29 0 -15 -26 -12 -40 5 -19 23 -43 20 -30 -4 5
-11 10 -32 10 -48 0 -55 10 -73 41 -73 27 0 29 2 29 41 0 46 19 50 31 5 6 -21
3 -29 -12 -39 -10 -6 -19 -20 -19 -30 0 -21 -16 -40 -42 -50 -10 -3 -18 -14
-18 -24 0 -10 -3 -28 -6 -40 -6 -21 -3 -23 33 -23 38 0 63 -14 63 -35 0 -13
-55 -47 -72 -43 -7 1 -26 -1 -42 -5 -37 -10 -22 -28 31 -36 34 -6 38 -9 38
-36 0 -25 -5 -31 -30 -35 l-30 -5 2 -130 c1 -72 5 -168 8 -215 4 -56 2 -92 -6
-107 -18 -33 1 -95 34 -111 18 -9 30 -25 37 -52 6 -22 15 -40 20 -40 5 0 7 -6
4 -14 -3 -8 2 -26 11 -40 22 -33 12 -86 -16 -86 -13 0 -24 10 -31 31 -10 30
-11 30 -30 12 -11 -11 -21 -40 -25 -72 l-6 -53 31 7 c39 8 51 -13 34 -57 -9
-25 -8 -36 7 -64 20 -37 29 -160 11 -149 -5 3 -10 24 -10 45 0 30 -6 43 -26
59 -33 26 -44 26 -51 1 -3 -11 -8 -20 -12 -20 -4 0 -8 -15 -9 -33 -2 -29 1
-34 20 -33 21 1 23 -4 26 -57 2 -40 -2 -66 -12 -82 -14 -22 -13 -24 24 -49 41
-27 65 -32 74 -17 8 12 42 3 56 -14 9 -11 3 -16 -27 -24 -21 -6 -55 -11 -75
-11 -44 0 -51 -9 -35 -43 8 -18 21 -27 41 -29 41 -4 47 -28 7 -28 -20 0 -34
-7 -41 -20 -6 -11 -18 -20 -26 -20 -8 0 -24 -5 -35 -11 -20 -10 -20 -11 2 -45
17 -28 19 -37 9 -49 -10 -13 -9 -19 5 -35 33 -36 48 -26 40 26 -6 45 8 104 25
104 15 0 41 -51 46 -94 5 -35 3 -47 -13 -63 -11 -11 -23 -32 -26 -46 -5 -16
-18 -29 -36 -35 -41 -14 -74 -52 -60 -69 17 -20 57 -16 69 7 6 11 16 17 25 14
17 -7 20 -49 5 -59 -20 -12 -11 -72 13 -89 16 -12 18 -18 9 -22 -30 -13 -52
-49 -52 -85 0 -53 21 -66 55 -34 16 14 34 25 41 25 8 0 14 5 14 11 0 5 -5 7
-10 4 -14 -9 -13 8 2 23 14 14 57 16 76 3 10 -6 6 -11 -17 -19 -25 -9 -31 -16
-31 -40 0 -24 -7 -33 -35 -46 -19 -9 -39 -26 -45 -36 -6 -11 -19 -20 -30 -20
-17 0 -40 -26 -40 -45 0 -3 11 -16 25 -29 21 -19 24 -29 19 -56 l-7 -32 -53 5
c-30 3 -56 2 -59 -2 -2 -5 6 -20 20 -35 20 -22 33 -26 65 -24 22 1 45 -3 52
-10 9 -9 19 -7 45 9 19 12 37 19 40 16 3 -3 -2 -28 -12 -56 -17 -53 -24 -198
-10 -221 13 -21 16 -122 4 -136 -6 -8 -8 -31 -4 -58 5 -30 3 -51 -4 -60 -10
-12 -8 -17 9 -26 16 -9 20 -19 18 -43 -3 -29 -7 -32 -38 -35 -19 -1 -41 -5
-49 -8 -24 -8 4 -27 46 -31 57 -4 60 -19 5 -27 -66 -9 -76 -32 -20 -47 l42
-11 -23 -18 -24 -17 22 -22 c27 -27 27 -39 -4 -63 -27 -21 -32 -47 -15 -79 8
-14 6 -25 -6 -44 -20 -31 -13 -51 23 -67 33 -15 43 -26 43 -50 0 -13 -8 -18
-25 -18 -28 0 -44 -25 -27 -42 16 -16 60 -1 68 24 6 19 7 20 16 4 16 -28 0
-80 -32 -111 -17 -16 -30 -33 -30 -38 0 -6 -11 -25 -25 -42 -21 -28 -22 -35
-11 -51 12 -15 18 -17 37 -7 44 21 55 21 67 2 14 -22 1 -34 -37 -34 -22 0 -24
-5 -28 -55 -7 -107 -2 -200 13 -236 8 -19 13 -43 10 -52 -3 -9 -6 -37 -8 -62
-2 -39 0 -45 17 -42 16 3 17 1 6 -12 -8 -9 -12 -34 -9 -63 3 -48 3 -48 -30
-51 -24 -2 -38 2 -47 15 -12 17 -14 16 -20 -10 -8 -31 5 -52 39 -61 16 -4 26
-17 34 -44 19 -62 15 -88 -15 -111 l-28 -20 46 -20 c54 -24 72 -42 63 -64 -9
-24 -38 -29 -70 -12 -16 8 -35 15 -41 15 -18 0 -16 -41 2 -64 18 -23 19 -59 4
-87 -17 -32 -2 -60 27 -53 14 4 31 1 39 -6 21 -18 19 -50 -3 -50 -10 0 -27 -6
-37 -14 -15 -11 -17 -17 -8 -28 7 -8 15 -32 18 -53 5 -31 3 -45 -13 -62 -11
-13 -27 -23 -36 -23 -10 0 -16 -8 -16 -22 0 -30 15 -52 29 -44 16 10 51 -12
51 -32 0 -10 -5 -23 -12 -30 -9 -9 -9 -12 0 -12 7 0 12 5 12 10 0 13 27 13 35
0 4 -6 -7 -13 -25 -16 -23 -5 -29 -11 -25 -24 3 -11 -5 -30 -20 -48 -27 -32
-26 -47 7 -93 19 -25 16 -59 -6 -59 -6 0 -17 -4 -25 -9 -12 -7 -8 -16 18 -42
36 -35 51 -67 51 -105 0 -14 7 -27 15 -30 23 -9 21 -132 -2 -141 -24 -9 -52
-44 -53 -65 0 -14 8 -18 34 -18 26 0 35 -5 40 -22 3 -13 1 -27 -4 -32 -12 -12
-60 2 -60 18 0 26 -25 37 -48 20 -24 -17 -30 -44 -9 -44 7 0 17 -14 22 -32 8
-24 18 -34 43 -40 29 -8 46 -28 23 -28 -39 0 -47 -98 -9 -108 16 -4 19 -12 16
-55 -3 -59 -25 -75 -35 -27 -7 39 -29 49 -48 24 -20 -26 -18 -53 5 -92 11 -18
20 -49 20 -70 0 -20 4 -43 9 -50 4 -7 4 -39 -1 -70 -6 -38 -6 -58 1 -60 6 -2
11 -10 11 -17 0 -7 14 -27 30 -45 17 -18 30 -36 30 -41 0 -15 -38 -29 -78 -29
l-39 0 -1 -43 c-1 -23 -2 -76 -2 -118 0 -62 -4 -84 -23 -118 -13 -22 -26 -39
-29 -36 -3 3 -16 1 -30 -4 -29 -11 -43 -4 -52 27 -5 14 -15 22 -31 22 -27 0
-36 -17 -23 -43 12 -24 -4 -43 -43 -51 -27 -5 -30 -10 -29 -38 1 -18 2 -39 1
-45 -2 -21 -39 -15 -46 8 -4 11 -12 18 -18 16 -15 -5 -22 -57 -8 -57 6 0 11
-7 11 -15 0 -8 15 -24 33 -35 20 -13 26 -20 15 -20 -10 0 -22 -9 -28 -21 -9
-16 -18 -19 -37 -14 -14 3 -31 1 -38 -5 -17 -14 -57 -9 -63 7 -2 7 8 17 22 23
26 9 41 43 34 77 -4 25 -54 30 -79 7 -25 -22 -24 -38 3 -56 23 -15 23 -15 -11
-23 -19 -4 -42 -16 -50 -26 -14 -17 -20 -18 -49 -7 -25 10 -37 10 -52 0 -17
-10 -23 -8 -44 15 l-25 27 -11 -28 c-7 -19 -15 -26 -25 -22 -13 5 -15 -22 -15
-197 l0 -202 -78 -2 c-42 -1 -124 -2 -182 -3 -126 -1 -259 -18 -281 -37 -8 -7
-25 -13 -37 -13 -22 0 -22 0 -22 243 l0 242 -28 50 c-18 34 -38 55 -63 67 -19
9 -41 23 -48 32 -10 11 -12 108 -11 426 1 410 1 411 -22 443 -27 39 -69 77
-85 77 -7 0 -23 15 -37 33 l-25 33 -1 546 0 546 23 6 c15 3 34 24 52 58 l29
53 -1 434 c-1 239 1 440 4 448 7 19 33 16 34 -4 1 -10 1 -174 0 -365 -1 -295
1 -352 14 -377 9 -19 15 -57 15 -101 0 -64 -3 -76 -32 -118 -18 -26 -44 -59
-59 -73 l-28 -26 1 -399 c0 -219 -1 -435 -2 -480 -2 -109 13 -142 84 -188 31
-19 67 -38 81 -42 l25 -6 2 -332 c1 -182 0 -374 -1 -427 -3 -94 -3 -96 24
-117 15 -12 33 -22 40 -22 19 0 28 77 30 265 3 168 3 170 -26 233 -41 91 -45
122 -19 155 12 15 21 35 21 44 3 321 3 1874 0 2508 0 61 1 226 3 368 4 243 3
259 -16 282 -22 28 -18 74 8 96 8 6 14 20 14 30 0 10 5 21 10 24 15 9 41 77
36 92 -3 7 2 29 10 50 9 21 16 64 15 102 0 36 -3 782 -5 1656 -2 875 -7 1708
-11 1853 -6 213 -4 266 6 279 11 13 14 376 16 2102 1 1147 4 2179 8 2294 6
210 14 257 49 287 13 10 16 34 16 109 1 64 5 104 15 121 8 14 14 48 15 77 0
28 5 55 10 58 7 5 8 11 1 19 -6 7 -9 377 -8 1038 2 1092 2 1086 47 1031 15
-18 19 -20 24 -8 8 23 -9 60 -44 93 -16 16 -30 38 -30 49 0 11 -8 29 -17 41
-53 62 -49 1 -51 792 -1 585 -4 735 -14 741 -22 14 -16 100 9 135 19 26 23 46
24 125 1 58 7 104 15 121 8 15 14 49 14 76 0 26 4 52 10 58 6 6 6 22 0 44 -15
56 -8 2046 7 2061 10 10 17 9 33 -6 11 -10 23 -16 26 -12 12 12 -19 79 -47 99
-17 13 -29 31 -29 44 0 12 -6 29 -13 36 -7 7 -22 27 -33 43 -21 29 -21 41 -22
475 0 245 -1 500 -1 568 l-1 122 -7505 0 -7505 0 0 -19955z m16270 19859 c0
-8 -4 -12 -10 -9 -5 3 -10 13 -10 21 0 8 5 12 10 9 6 -3 10 -13 10 -21z m43
-398 c6 -16 -16 -40 -26 -29 -4 3 -7 15 -7 25 0 21 25 24 33 4z m-43 -80 c0
-7 8 -24 18 -37 43 -57 -15 -103 -72 -58 l-28 22 31 24 c20 16 31 33 31 49 0
14 4 22 10 19 6 -3 10 -12 10 -19z m4 -682 c10 -26 7 -51 -8 -63 -8 -7 -18
-25 -21 -41 -6 -27 -27 -45 -39 -33 -10 10 -7 83 4 83 5 0 16 16 24 35 16 38
30 44 40 19z m-1437 -404 c3 -11 9 -20 14 -20 5 0 9 -8 9 -18 0 -10 18 -63 40
-118 22 -54 40 -108 40 -118 0 -59 -96 112 -115 204 -4 19 -14 44 -21 55 -19
27 -18 35 7 35 12 0 23 -8 26 -20z m1443 -228 c0 -18 -18 -42 -30 -42 -4 0 -6
10 -4 23 1 12 3 25 3 30 2 16 31 6 31 -11z m-1282 -104 c18 -15 15 -58 -4 -58
-32 0 -54 20 -54 51 0 27 3 30 23 23 12 -3 28 -11 35 -16z m40 -236 c2 -14 -2
-22 -12 -22 -19 0 -29 17 -22 36 8 22 30 12 34 -14z m1336 -50 c9 -14 -9 -31
-23 -23 -7 5 -10 14 -7 20 8 13 23 14 30 3z m-94 -537 c-13 -35 -34 -27 -38
15 -4 40 16 57 35 30 10 -14 10 -26 3 -45z m138 -69 c-2 -15 -7 -28 -13 -29
-12 -2 -19 38 -10 60 9 25 27 1 23 -31z m-78 -130 c0 -8 -4 -18 -10 -21 -5 -3
-10 3 -10 14 0 12 5 21 10 21 6 0 10 -6 10 -14z m6 -87 c8 -14 -11 -33 -25
-25 -11 7 -4 36 9 36 5 0 12 -5 16 -11z m-31 -150 c10 -15 -33 -52 -51 -45
-21 8 -29 37 -13 47 19 12 56 11 64 -2z m-53 -261 c-6 -6 -7 0 -4 19 5 21 7
23 10 9 2 -10 0 -22 -6 -28z m43 -318 c0 -13 -5 -25 -11 -27 -14 -5 -25 22
-17 42 8 23 28 12 28 -15z m38 -109 c30 -1 19 -38 -19 -60 -19 -12 -37 -21
-39 -21 -8 0 -35 72 -30 80 3 4 19 6 37 4 18 -1 41 -3 51 -3z m-83 -231 c0
-32 -1 -33 -24 -24 -19 7 -21 25 -4 42 19 19 28 14 28 -18z m80 -80 c0 -5 -7
-10 -15 -10 -8 0 -15 5 -15 10 0 6 7 10 15 10 8 0 15 -4 15 -10z m-50 -162 c0
-16 -3 -19 -11 -11 -6 6 -8 16 -5 22 11 17 16 13 16 -11z m41 -195 c-6 -21
-13 -56 -14 -79 -2 -33 -5 -40 -19 -36 -19 5 -26 52 -8 52 9 0 8 45 -1 75 -2
6 3 21 10 34 12 21 14 22 29 8 13 -14 14 -22 3 -54z m3 -225 c-3 -5 -12 -8
-20 -8 -14 0 -20 31 -7 43 8 8 33 -25 27 -35z m-29 -98 c8 -16 15 -38 15 -48
0 -36 -53 -39 -92 -5 -15 14 -14 17 15 48 18 18 35 33 39 34 4 0 14 -12 23
-29z m10 -211 c4 -11 4 -23 2 -26 -9 -8 -24 5 -30 27 -7 27 20 27 28 -1z
m-1451 -853 c48 -111 96 -245 96 -265 l0 -24 -18 24 c-32 42 -92 165 -92 191
0 7 -9 33 -20 57 -11 23 -18 47 -15 52 10 15 35 -3 49 -35z m1436 -220 c0 -14
-5 -28 -11 -32 -17 -10 -32 12 -24 35 9 29 35 27 35 -3z m-1282 -98 c6 -6 12
-21 12 -34 0 -18 -5 -24 -23 -24 -31 0 -47 18 -47 53 0 25 3 27 23 21 12 -3
28 -11 35 -16z m42 -233 c0 -25 -23 -35 -35 -15 -10 16 2 40 20 40 9 0 15 -9
15 -25z m1334 -53 c2 -4 1 -14 -4 -22 -7 -11 -12 -12 -21 -3 -6 6 -8 16 -5 22
8 13 23 14 30 3z m-90 -497 c13 -20 14 -28 4 -45 -7 -11 -21 -20 -30 -20 -15
0 -18 9 -18 45 0 52 18 60 44 20z m134 -109 c-2 -15 -7 -28 -13 -29 -12 -2
-19 38 -10 60 9 25 27 1 23 -31z m-78 -141 c0 -14 -4 -25 -10 -25 -5 0 -10 11
-10 25 0 14 5 25 10 25 6 0 10 -11 10 -25z m4 -71 c9 -25 7 -34 -8 -34 -19 0
-28 14 -20 34 8 20 20 20 28 0z m-25 -148 c9 -11 9 -19 0 -35 -20 -31 -51 -35
-72 -9 -18 22 -18 23 3 40 27 22 53 23 69 4z m61 -1476 c0 -13 -9 -22 -25 -26
-35 -9 -42 1 -20 26 23 26 45 26 45 0z m15 -130 c-3 -5 -15 -10 -25 -10 -10 0
-22 5 -25 10 -4 6 7 10 25 10 18 0 29 -4 25 -10z m2000 -421 c4 -5 4 -21 1
-34 -5 -18 -11 -23 -24 -18 -28 10 -43 34 -31 50 14 16 45 17 54 2z m-2000
-369 c3 -5 1 -10 -4 -10 -6 0 -11 5 -11 10 0 6 2 10 4 10 3 0 8 -4 11 -10z
m-65 -1519 c0 -11 -40 -22 -52 -15 -5 3 -6 10 -3 15 8 12 55 12 55 0z m3 -343
c7 -25 0 -41 -14 -33 -12 8 -12 55 0 55 5 0 11 -10 14 -22z m4047 -128 c0 -22
-1 -23 -24 -14 -13 5 -14 9 -5 20 16 20 29 17 29 -6z m-4092 -78 c3 -10 -4
-13 -24 -10 -15 2 -29 9 -32 16 -3 10 4 13 24 10 15 -2 29 -9 32 -16z m39
-1038 c3 -9 0 -20 -7 -24 -17 -10 -73 17 -65 30 10 16 65 12 72 -6z m-24 -429
c-3 -13 -53 -20 -53 -7 0 15 13 23 35 20 11 -2 19 -7 18 -13z m-18 -295 c18
-7 19 -8 2 -15 -9 -4 -29 -4 -44 0 -21 5 -24 8 -12 16 17 10 27 10 54 -1z m21
-82 c-9 -5 -24 -7 -34 -5 -14 3 -12 6 8 14 29 12 50 5 26 -9z m-24 -95 c36
-32 18 -63 -38 -63 -21 0 -24 5 -24 33 0 19 3 37 7 40 11 12 36 8 55 -10z m25
-134 c-15 -24 -23 -24 -30 0 -6 25 -1 30 23 24 16 -4 17 -8 7 -24z m-67 -129
c0 -9 -8 -16 -18 -17 -12 -1 -18 6 -20 24 -1 14 1 29 4 35 7 11 33 -21 34 -42z
m151 -219 c-8 -5 -20 -7 -28 -4 -21 8 -15 13 15 13 20 0 23 -3 13 -9z m-96
-177 c1 -27 -12 -32 -21 -9 -7 18 4 51 14 41 4 -4 7 -19 7 -32z m75 -935 c0
-5 -13 -9 -30 -9 -16 0 -32 0 -35 0 -3 0 -5 3 -4 8 0 4 6 6 14 4 7 -1 16 2 20
7 7 12 35 3 35 -10z m7199 -28 c11 -20 5 -31 -16 -31 -7 0 -13 11 -13 25 0 29
15 33 29 6z m-7199 -515 c0 -3 -4 -8 -10 -11 -5 -3 -10 -1 -10 4 0 6 5 11 10
11 6 0 10 -2 10 -4z m255 -157 c8 -25 -6 -42 -31 -37 -29 6 -13 57 18 58 4 0
10 -9 13 -21z m-265 -834 c0 -14 -4 -25 -10 -25 -5 0 -10 11 -10 25 0 14 5 25
10 25 6 0 10 -11 10 -25z m-30 -25 c0 -5 -5 -10 -11 -10 -5 0 -7 5 -4 10 3 6
8 10 11 10 2 0 4 -4 4 -10z m35 -2060 c3 -5 1 -10 -4 -10 -6 0 -11 5 -11 10 0
6 2 10 4 10 3 0 8 -4 11 -10z m71 -41 c3 -6 1 -16 -5 -22 -8 -8 -17 -5 -33 11
l-22 22 26 0 c15 0 30 -5 34 -11z m9782 -71 c17 -17 15 -48 -4 -55 -23 -8 -38
12 -30 41 7 29 16 32 34 14z m-1273 -467 c-4 -13 -13 -21 -23 -19 -21 4 -27
34 -11 54 11 13 14 13 27 1 9 -9 11 -23 7 -36z m-8735 -1114 c0 -2 -7 -18 -16
-35 -16 -33 -22 -36 -48 -26 -14 5 -14 9 1 35 11 19 26 29 40 29 13 0 23 -2
23 -3z m135 -135 c12 -26 45 -42 93 -43 56 -2 87 -12 90 -30 2 -14 -11 -18
-80 -23 -46 -3 -103 -8 -128 -12 -51 -6 -100 8 -100 31 0 23 -19 18 -25 -7 -3
-13 -4 -39 -4 -58 3 -62 -14 -181 -23 -172 -5 5 -12 71 -17 146 -5 91 -11 140
-20 145 -9 6 -9 10 1 18 19 15 86 35 96 29 5 -3 22 -2 38 3 37 10 66 0 79 -27z
m618 -52 c20 -11 48 -20 61 -20 32 0 40 -14 24 -40 -21 -34 -54 -36 -96 -6
-29 20 -51 26 -93 27 -29 0 -48 3 -41 6 6 2 12 10 12 17 0 39 73 48 133 16z
m-257 -32 c3 -4 -13 -8 -36 -8 -23 0 -39 4 -35 9 7 12 64 11 71 -1z m-1021
-58 c-41 -43 -75 -37 -60 10 5 16 15 20 48 20 l41 0 -29 -30z m135 15 c0 -8
-4 -15 -10 -15 -5 0 -10 7 -10 15 0 8 5 15 10 15 6 0 10 -7 10 -15z m456
-1113 c6 -4 14 -16 18 -27 4 -16 -1 -25 -24 -38 -16 -10 -53 -40 -82 -67 -62
-57 -81 -54 -72 14 9 63 22 83 73 105 49 22 70 25 87 13z m-4530 -47 c24 -4
34 -12 39 -32 3 -15 16 -35 27 -45 23 -20 33 -20 404 -18 184 1 212 -1 224
-15 11 -13 11 -21 2 -36 -7 -11 -10 -24 -7 -29 8 -13 178 -13 190 -1 10 9 37
14 66 12 9 0 27 -12 40 -26 22 -22 32 -25 104 -25 44 0 104 -3 133 -7 l53 -6
-6 -41 c-7 -47 -21 -90 -41 -128 -8 -14 -11 -34 -8 -42 15 -39 -69 -197 -115
-217 -24 -11 -27 -16 -18 -31 9 -13 8 -21 -1 -30 -17 -17 -247 -27 -356 -14
-83 10 -90 9 -100 -8 -6 -11 -23 -33 -38 -50 -15 -17 -42 -55 -60 -85 l-33
-55 -281 -1 -281 0 -46 -38 c-26 -21 -54 -45 -63 -55 -18 -17 -36 -18 -284 -7
-58 2 -160 5 -227 5 -143 2 -168 19 -30 22 50 1 121 3 157 5 36 2 132 4 213 6
l148 2 24 31 c14 18 48 44 77 59 l52 27 238 -4 c166 -4 242 -2 251 6 8 6 24
28 36 49 13 21 28 43 35 50 14 14 76 106 76 113 0 2 -31 4 -68 4 -65 0 -71 -2
-105 -35 -20 -19 -41 -35 -47 -35 -5 0 -10 -4 -10 -9 0 -6 -151 -10 -378 -10
l-379 1 -48 -31 c-51 -32 -83 -39 -102 -20 -7 7 -23 9 -40 4 -15 -4 -109 -7
-208 -6 -99 0 -412 1 -695 1 -529 0 -754 7 -728 21 8 4 278 10 599 12 609 5
601 4 568 43 -18 22 -82 27 -419 33 -296 5 -339 8 -363 24 -29 19 -72 23 -82
7 -7 -12 -679 -9 -691 3 -4 4 -5 9 -3 11 9 9 180 17 427 21 163 2 257 7 266
14 7 6 63 13 125 15 90 3 110 2 101 -9 -6 -7 -25 -16 -43 -19 -56 -11 -13 -22
81 -21 158 3 190 6 162 15 -14 4 -53 8 -87 9 -34 1 -64 5 -67 10 -8 12 51 22
90 15 18 -3 34 -1 38 5 4 6 17 11 28 11 12 0 18 3 14 7 -4 4 -123 7 -266 8
-234 0 -284 4 -268 21 3 3 110 8 237 11 127 3 231 10 231 14 0 4 -21 7 -47 7
-27 -1 -228 2 -448 6 -220 4 -497 8 -615 10 -249 5 -235 4 -226 13 7 8 109 9
719 12 254 1 327 4 327 14 -1 6 -11 25 -25 41 l-24 30 -648 1 c-356 1 -656 3
-665 4 -33 2 -19 19 30 35 38 14 111 18 397 22 193 3 393 7 445 10 245 11 483
15 505 10 15 -4 22 -11 19 -20 -8 -21 27 -25 196 -20 85 3 223 6 305 9 140 3
188 8 225 22 8 4 29 7 45 8 92 7 716 24 867 25 l177 0 33 28 c75 63 69 62 305
62 287 1 258 17 -42 23 -127 3 -245 9 -263 13 -24 5 -40 18 -57 45 -45 71 -37
69 -362 69 -179 0 -293 4 -293 10 0 11 45 19 130 23 151 5 497 7 526 2z m4852
-58 c18 -14 15 -45 -8 -64 -11 -10 -20 -23 -20 -29 0 -7 -8 -26 -17 -43 -15
-27 -22 -30 -43 -24 -14 4 -65 8 -115 9 -125 3 -122 2 -129 19 -7 21 20 95 46
123 21 22 28 23 148 21 69 -1 131 -7 138 -12z m130 -72 c6 -6 -29 -65 -39 -65
-5 0 -18 -19 -28 -42 -10 -24 -27 -51 -38 -61 -19 -17 -21 -17 -27 -1 -14 37
-19 134 -7 134 7 0 29 11 49 25 26 18 44 24 62 20 14 -4 26 -8 28 -10z m-5838
-885 c-20 -13 -57 -13 -65 0 -4 6 11 10 37 10 31 0 39 -3 28 -10z m19008 -192
c17 -17 15 -48 -4 -55 -23 -8 -38 12 -30 41 7 29 16 32 34 14z m-9122 -815
c18 -20 30 -41 27 -47 -24 -40 -49 -66 -64 -66 -19 0 -79 55 -79 73 0 13 61
76 74 77 4 0 23 -16 42 -37z m9440 -238 c10 -24 -5 -36 -27 -24 -16 8 -18 13
-8 25 15 18 28 18 35 -1z m-14610 -1247 c-3 -13 -6 -26 -6 -29 0 -3 -12 -11
-26 -18 -48 -22 -61 14 -18 48 36 28 58 28 50 -1z m6829 -968 c3 -6 -1 -13
-10 -16 -19 -8 -30 0 -20 15 8 14 22 14 30 1z m7940 -760 c3 -6 -1 -13 -10
-16 -19 -8 -30 0 -20 15 8 14 22 14 30 1z m-8868 -2507 c4 -11 -26 -27 -35
-19 -2 3 -2 12 2 21 6 18 27 16 33 -2z m8888 -1013 c3 -6 -1 -13 -10 -16 -19
-8 -30 0 -20 15 8 14 22 14 30 1z m-8658 -3104 c-4 -9 -11 -16 -17 -16 -11 0
-14 33 -3 43 11 11 26 -10 20 -27z m-3950 -3613 c4 -11 -26 -27 -35 -19 -2 3
-2 12 2 21 6 18 27 16 33 -2z"/>
<path d="M12607 17383 c-71 -6 -55 -27 23 -31 77 -4 97 2 80 23 -7 8 -22 14
-34 13 -11 -1 -43 -3 -69 -5z"/>
<path d="M11969 17364 c-17 -21 36 -25 271 -22 183 3 215 5 215 18 0 13 -33
15 -238 16 -182 1 -240 -2 -248 -12z"/>
<path d="M9987 17222 c-10 -2 -16 -9 -14 -15 3 -9 73 -13 248 -15 134 -1 250
0 257 3 11 4 12 8 3 19 -10 12 -56 14 -244 13 -128 0 -240 -2 -250 -5z"/>
<path d="M10636 17222 c-16 -4 -31 -13 -34 -19 -3 -10 28 -13 132 -13 114 0
136 2 136 15 0 12 -16 15 -82 15 -46 0 -92 2 -103 4 -11 2 -33 1 -49 -2z"/>
<path d="M10977 17222 c-24 -2 -37 -8 -34 -15 4 -13 184 -20 192 -7 6 9 -111
26 -158 22z"/>
<path d="M11318 17203 c6 -2 18 -2 25 0 6 3 1 5 -13 5 -14 0 -19 -2 -12 -5z"/>
<path d="M11388 17203 c7 -3 16 -2 19 1 4 3 -2 6 -13 5 -11 0 -14 -3 -6 -6z"/>
<path d="M11150 17137 c0 -7 6 -22 14 -33 13 -17 27 -19 147 -19 97 0 133 3
136 13 3 7 21 12 43 12 24 0 40 5 43 15 4 8 3 16 -1 18 -4 3 -91 5 -194 6
-153 2 -188 0 -188 -12z"/>
<path d="M10855 17110 c-132 -3 -209 -9 -208 -15 2 -6 84 -10 220 -10 199 0
218 1 221 18 2 10 -2 16 -10 15 -7 -1 -107 -5 -223 -8z"/>
<path d="M11668 17113 c18 -2 45 -2 60 0 15 2 0 4 -33 4 -33 0 -45 -2 -27 -4z"/>
<path d="M10340 17100 c0 -6 12 -22 28 -35 23 -21 37 -24 104 -25 82 0 94 6
84 46 -6 24 -8 24 -111 24 -67 0 -105 -4 -105 -10z"/>
<path d="M11880 17050 c0 -5 5 -10 11 -10 5 0 7 5 4 10 -3 6 -8 10 -11 10 -2
0 -4 -4 -4 -10z"/>
<path d="M10704 16981 c-9 -9 -3 -21 9 -21 7 0 28 -11 47 -25 22 -16 37 -21
45 -15 7 6 260 9 647 10 350 0 643 3 652 6 25 10 19 33 -11 41 -16 5 -91 7
-168 6 -77 -1 -160 -2 -185 -2 -25 -1 -267 0 -538 2 -272 1 -496 0 -498 -2z"/>
<path d="M10813 16873 c-7 -2 -13 -9 -13 -14 0 -11 203 -11 250 1 26 6 4 8
-82 9 -64 1 -122 3 -130 5 -7 3 -19 2 -25 -1z"/>
<path d="M11193 16872 c-35 -2 -63 -7 -63 -12 0 -13 127 -13 135 -1 8 14 -4
16 -72 13z"/>
<path d="M15091 39370 c-2 -499 0 -543 16 -570 9 -17 23 -30 30 -30 15 0 17
204 6 778 l-6 362 -22 0 -22 0 -2 -540z"/>
<path d="M15477 38942 c0 -537 5 -1000 11 -1042 6 -51 10 260 11 968 1 828 -2
1042 -11 1042 -10 0 -13 -199 -11 -968z"/>
<path d="M16107 39154 c-8 -8 1 -24 14 -24 5 0 9 7 9 15 0 15 -12 20 -23 9z"/>
<path d="M16220 39110 c-13 -8 -12 -10 3 -10 9 0 17 5 17 10 0 12 -1 12 -20 0z"/>
<path d="M16150 38860 c-12 -7 -12 -12 -3 -21 15 -15 26 -7 21 15 -2 11 -7 13
-18 6z"/>
<path d="M16141 38373 c-11 -12 -12 -20 -3 -34 17 -26 15 -55 -4 -74 -20 -19
-10 -32 26 -35 44 -4 45 -1 45 60 0 54 -2 61 -22 66 -12 3 -23 12 -25 19 -2
10 -6 10 -17 -2z"/>
<path d="M15142 38360 c0 -14 2 -19 5 -12 2 6 2 18 0 25 -3 6 -5 1 -5 -13z"/>
<path d="M15146 37165 c2 -517 4 -958 5 -980 3 -69 -12 -208 -25 -245 -10 -27
-14 -192 -15 -734 -1 -642 0 -700 16 -727 44 -74 44 -71 37 692 -7 785 -10
741 51 807 l30 33 0 937 c0 854 -2 940 -17 973 -9 19 -24 41 -32 49 -9 7 -16
22 -16 35 0 12 -3 25 -7 29 -5 4 -13 22 -19 39 -9 24 -11 -204 -8 -908z"/>
<path d="M16115 38029 c-10 -16 1 -22 26 -14 17 6 19 9 8 16 -19 12 -26 11
-34 -2z"/>
<path d="M15493 37730 c0 -36 2 -50 4 -32 2 17 2 47 0 65 -2 17 -4 3 -4 -33z"/>
<path d="M16163 37633 c-25 -9 -4 -75 25 -81 10 -2 12 9 10 40 -3 41 -11 51
-35 41z"/>
<path d="M15492 37530 c0 -14 2 -19 5 -12 2 6 2 18 0 25 -3 6 -5 1 -5 -13z"/>
<path d="M15491 37324 c0 -11 3 -14 6 -6 3 7 2 16 -1 19 -3 4 -6 -2 -5 -13z"/>
<path d="M16151 37233 c-1 -18 4 -33 9 -33 12 0 12 17 0 45 -7 17 -9 15 -9
-12z"/>
<path d="M15492 37185 c0 -16 2 -22 5 -12 2 9 2 23 0 30 -3 6 -5 -1 -5 -18z"/>
<path d="M15493 37000 c0 -30 2 -43 4 -27 2 15 2 39 0 55 -2 15 -4 2 -4 -28z"/>
<path d="M16112 36415 c2 -14 8 -26 13 -26 6 0 11 12 13 26 2 18 -1 25 -13 25
-12 0 -15 -7 -13 -25z"/>
<path d="M15496 34777 c0 -821 3 -1139 11 -1157 9 -19 12 262 12 1133 1 919
-2 1157 -11 1157 -10 0 -13 -233 -12 -1133z"/>
<path d="M16140 35092 c0 -5 7 -13 16 -16 10 -4 14 -1 12 6 -5 15 -28 23 -28
10z"/>
<path d="M16135 34830 c-3 -5 -1 -10 4 -10 6 0 11 5 11 10 0 6 -2 10 -4 10 -3
0 -8 -4 -11 -10z"/>
<path d="M16160 34530 c0 -5 9 -10 20 -10 11 0 20 5 20 10 0 6 -9 10 -20 10
-11 0 -20 -4 -20 -10z"/>
<path d="M15162 34040 c0 -14 2 -19 5 -12 2 6 2 18 0 25 -3 6 -5 1 -5 -13z"/>
<path d="M15167 32855 c6 -1109 6 -1022 -2 -1177 -4 -71 -4 -128 0 -128 12 0
34 33 35 52 0 10 15 34 33 54 l32 37 0 936 0 936 -23 40 c-12 22 -26 47 -31
55 -5 8 -18 38 -30 65 l-20 50 6 -920z"/>
<path d="M16135 33700 c3 -5 8 -10 11 -10 2 0 4 5 4 10 0 6 -5 10 -11 10 -5 0
-7 -4 -4 -10z"/>
<path d="M15512 33540 c0 -19 2 -27 5 -17 2 9 2 25 0 35 -3 9 -5 1 -5 -18z"/>
<path d="M15512 33440 c0 -19 2 -27 5 -17 2 9 2 25 0 35 -3 9 -5 1 -5 -18z"/>
<path d="M16182 33312 c-10 -7 -9 -16 3 -46 9 -20 20 -34 25 -31 17 10 9 85
-9 85 -3 0 -12 -4 -19 -8z"/>
<path d="M15511 32854 c0 -11 3 -14 6 -6 3 7 2 16 -1 19 -3 4 -6 -2 -5 -13z"/>
<path d="M15511 32704 c0 -11 3 -14 6 -6 3 7 2 16 -1 19 -3 4 -6 -2 -5 -13z"/>
<path d="M16228 31993 c-4 -31 10 -118 19 -110 10 11 7 131 -4 134 -6 2 -12
-9 -15 -24z"/>
<path d="M16181 31546 c-16 -20 -10 -56 11 -70 14 -8 22 -7 35 7 16 16 16 20
3 44 -18 33 -33 38 -49 19z"/>
<path d="M15240 31461 c-7 -15 -9 -281 -5 -893 4 -480 6 -901 5 -935 -1 -58
13 -93 23 -56 10 37 7 1892 -2 1898 -6 3 -15 -3 -21 -14z"/>
<path d="M15161 31304 c0 -11 3 -14 6 -6 3 7 2 16 -1 19 -3 4 -6 -2 -5 -13z"/>
<path d="M15161 31195 c-1 -47 -6 -86 -13 -93 -8 -8 -8 -15 1 -25 13 -16 13
-520 0 -547 -4 -9 -1 -24 7 -35 17 -23 15 -70 17 365 2 190 0 361 -4 380 -5
25 -7 12 -8 -45z"/>
<path d="M16270 31035 c0 -8 5 -15 10 -15 6 0 10 7 10 15 0 8 -4 15 -10 15 -5
0 -10 -7 -10 -15z"/>
<path d="M16270 30611 c0 -12 6 -21 16 -21 9 0 14 7 12 17 -5 25 -28 28 -28 4z"/>
<path d="M15163 30435 c0 -22 2 -30 4 -17 2 12 2 30 0 40 -3 9 -5 -1 -4 -23z"/>
<path d="M15153 30350 c-6 -23 -6 -43 -1 -48 5 -5 4 -20 -2 -37 -7 -19 -7 -45
0 -85 6 -31 8 -64 4 -73 -3 -9 -1 -24 5 -34 8 -13 11 8 11 87 1 58 2 131 2
163 1 70 -5 79 -19 27z"/>
<path d="M16243 30319 c-26 -10 -39 -45 -23 -64 22 -27 38 -17 42 28 3 23 4
43 4 43 -1 1 -11 -2 -23 -7z"/>
<path d="M15159 30038 c-1 -7 -1 -17 0 -22 1 -4 -2 -13 -7 -20 -8 -9 -8 -112
-3 -321 1 -20 4 -26 10 -17 9 14 15 392 6 392 -3 0 -6 -6 -6 -12z"/>
<path d="M15077 29905 c-4 -8 -2 -17 3 -20 6 -4 10 3 10 14 0 25 -6 27 -13 6z"/>
<path d="M15081 29784 c0 -11 3 -14 6 -6 3 7 2 16 -1 19 -3 4 -6 -2 -5 -13z"/>
<path d="M15151 29630 c-10 -83 -11 -160 -1 -160 19 0 22 28 12 102 -5 40 -10
66 -11 58z"/>
<path d="M16265 29630 c-4 -6 -3 -24 0 -41 l7 -30 17 33 c9 18 16 36 14 41 -6
10 -31 9 -38 -3z"/>
<path d="M15246 29433 c-8 -30 -11 -936 -3 -961 5 -12 12 -20 17 -17 12 8 12
982 0 990 -5 3 -11 -3 -14 -12z"/>
<path d="M15140 29303 c0 -54 13 -86 24 -58 8 21 8 69 0 89 -12 31 -24 15 -24
-31z"/>
<path d="M15149 29219 c0 -2 -2 -68 -3 -146 -2 -133 4 -175 17 -120 7 28 1
257 -7 265 -3 3 -6 3 -7 1z"/>
<path d="M15081 29154 c0 -11 3 -14 6 -6 3 7 2 16 -1 19 -3 4 -6 -2 -5 -13z"/>
<path d="M16220 29010 c-13 -8 -12 -10 3 -10 9 0 17 5 17 10 0 12 -1 12 -20 0z"/>
<path d="M15081 28984 c0 -11 3 -14 6 -6 3 7 2 16 -1 19 -3 4 -6 -2 -5 -13z"/>
<path d="M15147 28893 c-4 -3 -7 -64 -7 -134 0 -108 2 -127 14 -123 19 7 22
28 18 157 -3 99 -8 118 -25 100z"/>
<path d="M15081 28734 c0 -11 3 -14 6 -6 3 7 2 16 -1 19 -3 4 -6 -2 -5 -13z"/>
<path d="M15083 28515 c0 -22 2 -30 4 -17 2 12 2 30 0 40 -3 9 -5 -1 -4 -23z"/>
<path d="M15081 28444 c0 -11 3 -14 6 -6 3 7 2 16 -1 19 -3 4 -6 -2 -5 -13z"/>
<path d="M15148 28400 c-4 -14 -4 -86 -1 -160 16 -393 7 -1506 -14 -1710 -6
-55 -5 -724 1 -2565 1 -165 4 -305 8 -311 4 -6 10 -33 13 -60 6 -44 23 -84 26
-59 1 6 2 694 3 1530 2 1526 3 1595 36 1615 8 5 9 16 5 30 -4 14 -3 20 3 16 5
-3 13 1 16 10 10 26 7 34 -13 34 -13 0 -20 10 -25 31 -3 17 -6 363 -6 768 0
563 3 740 12 749 10 10 7 16 -10 28 -12 8 -28 30 -36 47 -13 32 -13 32 -18 7z"/>
<path d="M16180 28051 c0 -28 21 -37 37 -16 19 27 16 35 -12 35 -18 0 -25 -5
-25 -19z"/>
<path d="M16120 27182 c0 -25 4 -29 31 -30 27 -1 30 2 27 26 -2 21 -9 28 -30
30 -25 3 -28 0 -28 -26z"/>
<path d="M15071 27074 c0 -11 3 -14 6 -6 3 7 2 16 -1 19 -3 4 -6 -2 -5 -13z"/>
<path d="M16133 27033 c-19 -7 -16 -20 6 -26 24 -6 46 7 37 22 -7 11 -22 13
-43 4z"/>
<path d="M16141 26951 c-11 -7 -10 -11 6 -20 22 -11 33 -6 33 16 0 15 -18 17
-39 4z"/>
<path d="M15066 26943 c-13 -13 -6 -160 8 -172 12 -10 14 3 15 78 1 82 -6 111
-23 94z"/>
<path d="M15242 26690 c0 -14 2 -19 5 -12 2 6 2 18 0 25 -3 6 -5 1 -5 -13z"/>
<path d="M16120 26691 c0 -6 5 -13 10 -16 6 -3 10 1 10 9 0 9 -4 16 -10 16 -5
0 -10 -4 -10 -9z"/>
<path d="M15049 26615 c-7 -35 -8 -76 -8 -205 0 -36 0 -144 0 -240 0 -96 0
-184 0 -195 1 -11 1 -33 1 -50 -1 -16 1 -178 3 -360 2 -181 4 -358 4 -392 1
-36 5 -63 11 -63 6 0 10 15 9 33 0 17 0 351 0 740 1 454 -2 714 -8 725 -6 9
-11 13 -12 7z"/>
<path d="M16180 25498 c0 -7 4 -20 10 -28 7 -12 10 -11 16 5 4 11 9 23 11 28
2 4 -5 7 -16 7 -12 0 -21 -6 -21 -12z"/>
<path d="M15049 24645 c-1 -446 -2 -532 -10 -793 -4 -117 2 -152 22 -121 12
20 11 1340 -1 1359 -6 10 -10 -145 -11 -445z"/>
<path d="M15274 24995 c0 -55 1 -76 3 -47 2 29 2 74 0 100 -2 26 -3 2 -3 -53z"/>
<path d="M16128 25025 c-3 -6 -9 -27 -13 -48 -7 -33 -5 -37 14 -37 15 0 21 6
20 23 -2 35 -14 73 -21 62z"/>
<path d="M15420 24879 c0 -13 -2 -589 -4 -1280 -2 -691 0 -1262 4 -1269 6 -9
9 -8 13 6 8 26 1 2553 -7 2561 -3 4 -6 -5 -6 -18z"/>
<path d="M16208 24153 c7 -3 16 -2 19 1 4 3 -2 6 -13 5 -11 0 -14 -3 -6 -6z"/>
<path d="M15272 24115 c0 -16 2 -22 5 -12 2 9 2 23 0 30 -3 6 -5 -1 -5 -18z"/>
<path d="M15273 23965 c0 -22 2 -30 4 -17 2 12 2 30 0 40 -3 9 -5 -1 -4 -23z"/>
<path d="M15274 23755 c0 -55 1 -76 3 -47 2 29 2 74 0 100 -2 26 -3 2 -3 -53z"/>
<path d="M16266 23638 c-2 -7 -7 -26 -11 -41 -4 -22 -11 -28 -28 -25 -26 3
-50 -10 -42 -23 8 -13 55 -11 55 2 0 5 3 8 8 5 15 -9 40 21 44 53 3 34 -18 57
-26 29z"/>
<path d="M15273 23565 c0 -33 2 -45 4 -27 2 18 2 45 0 60 -2 15 -4 0 -4 -33z"/>
<path d="M15044 23516 c-4 -16 -3 -65 1 -110 4 -44 6 -90 6 -101 -1 -11 -1
-67 0 -124 0 -101 0 -104 -30 -142 -25 -31 -31 -47 -31 -87 0 -30 -5 -54 -14
-61 -11 -10 -14 -181 -14 -1059 -1 -1071 4 -1442 20 -1442 15 0 30 54 30 110
0 30 0 425 -1 877 l-1 822 30 66 c16 36 30 69 30 74 0 4 9 16 19 25 19 17 19
36 15 569 l-4 552 -25 30 -24 29 -7 -28z"/>
<path d="M15270 23373 c-1 -100 -7 -573 -9 -653 -2 -89 0 -127 8 -155 6 -19
10 141 10 443 1 259 -1 472 -4 472 -3 0 -5 -48 -5 -107z"/>
<path d="M15180 23070 c0 -5 5 -10 10 -10 6 0 10 5 10 10 0 6 -4 10 -10 10 -5
0 -10 -4 -10 -10z"/>
<path d="M16210 22959 c-9 -16 -8 -29 6 -57 l18 -37 9 43 c13 66 -8 98 -33 51z"/>
<path d="M15175 22688 c-4 -14 -5 -39 -3 -54 4 -27 5 -26 17 15 8 29 9 47 2
54 -7 7 -12 2 -16 -15z"/>
<path d="M15171 22564 c0 -11 3 -14 6 -6 3 7 2 16 -1 19 -3 4 -6 -2 -5 -13z"/>
<path d="M15215 22354 l-40 -44 -5 -103 c-6 -112 -2 -139 32 -242 23 -70 23
-73 21 -570 -2 -275 -2 -549 -1 -610 0 -60 0 -131 -1 -157 -1 -25 3 -49 8 -53
12 -7 26 59 17 74 -4 6 -2 19 3 29 5 10 12 62 15 115 2 52 10 106 17 119 16
28 20 234 7 298 -6 25 -11 263 -13 530 -3 628 -4 660 -12 659 -5 0 -26 -20
-48 -45z"/>
<path d="M15094 22153 c-11 -20 -12 -1538 -1 -1549 3 -4 1 -14 -6 -24 -15 -22
-15 -273 1 -292 6 -7 12 -29 14 -48 2 -22 9 -36 19 -38 14 -3 16 8 15 70 0 40
-5 76 -10 80 -6 4 -5 12 2 21 9 10 10 203 7 768 -4 663 -6 759 -20 799 -13 36
-14 52 -5 80 14 45 1 160 -16 133z"/>
<path d="M16251 21860 c9 -25 13 -27 28 -18 10 6 23 19 30 29 10 17 8 19 -28
19 -40 0 -40 0 -30 -30z"/>
<path d="M16210 21311 c0 -21 13 -41 26 -41 15 0 17 10 8 34 -7 17 -34 22 -34
7z"/>
<path d="M16306 20381 c-4 -7 -5 -15 -2 -18 9 -9 19 4 14 18 -4 11 -6 11 -12
0z"/>
<path d="M16255 20290 c-3 -5 1 -10 9 -10 9 0 16 5 16 10 0 6 -4 10 -9 10 -6
0 -13 -4 -16 -10z"/>
<path d="M14976 20232 c-3 -5 -6 -141 -7 -303 -3 -287 -2 -295 19 -329 21 -33
28 -84 23 -152 -1 -15 2 -35 7 -44 23 -41 33 55 34 327 1 271 1 275 -25 360
-15 47 -27 97 -27 111 0 27 -14 45 -24 30z"/>
<path d="M16186 19631 c-17 -18 -17 -20 1 -29 27 -16 56 3 43 28 -13 25 -22
25 -44 1z"/>
<path d="M16075 19321 c-3 -5 -1 -12 4 -15 13 -8 42 4 35 15 -7 12 -31 12 -39
0z"/>
<path d="M16000 19194 c0 -8 5 -12 10 -9 6 3 10 10 10 16 0 5 -4 9 -10 9 -5 0
-10 -7 -10 -16z"/>
<path d="M15937 19144 c-4 -4 -4 -10 -2 -14 6 -10 45 0 45 11 0 10 -33 12 -43
3z"/>
</g>
</svg>
