<?xml version="1.0" standalone="no"?>
<!DOCTYPE svg PUBLIC "-//W3C//DTD SVG 20010904//EN"
 "http://www.w3.org/TR/2001/REC-SVG-20010904/DTD/svg10.dtd">
<svg version="1.0" xmlns="http://www.w3.org/2000/svg"
 width="3000.000000pt" height="2000.000000pt" viewBox="0 0 3000.000000 2000.000000"
 preserveAspectRatio="xMidYMid meet">

<g transform="translate(0.000000,2000.000000) scale(0.100000,-0.100000)"
fill="#FFFFFF" stroke="none">
<path d="M7775 14975 c-176 -25 -347 -78 -525 -161 -185 -88 -275 -151 -409
-287 -152 -154 -267 -337 -335 -536 -51 -147 -70 -260 -69 -426 0 -202 33
-365 119 -577 105 -263 196 -385 617 -831 194 -205 207 -225 169 -260 -17 -16
-167 -17 -1950 -17 l-1932 0 0 -850 0 -850 2418 3 2417 3 96 21 c304 67 538
192 745 398 163 162 277 344 349 559 131 392 101 845 -80 1207 -96 191 -207
324 -677 820 -159 168 -177 196 -146 227 9 9 273 12 1125 12 l1113 0 0 -1625
0 -1625 855 0 855 0 0 1620 0 1620 1040 0 1040 0 -2 783 -3 782 -3370 1
c-2686 2 -3388 -1 -3460 -11z"/>
<path d="M15394 14980 c-15 -6 -28 -28 -43 -72 -21 -66 -894 -2951 -1222
-4042 -104 -345 -189 -639 -189 -652 0 -16 7 -25 23 -29 12 -3 409 -4 882 -3
l860 3 101 324 c56 179 107 333 113 343 11 17 50 18 820 18 637 0 811 -3 818
-12 4 -7 55 -161 113 -343 l106 -330 862 -3 c827 -2 862 -1 871 16 7 14 0 51
-29 143 -21 68 -234 756 -474 1529 -960 3102 -955 3084 -977 3103 -20 16 -97
17 -1318 16 -713 0 -1306 -4 -1317 -9z m1536 -2030 c89 -289 175 -569 192
-623 28 -92 29 -99 14 -122 l-16 -25 -362 0 c-322 0 -363 2 -380 17 -10 9 -18
22 -18 30 0 11 367 1212 386 1263 5 13 6 13 14 0 4 -8 81 -251 170 -540z"/>
<path d="M19837 14984 c-4 -4 -7 -1081 -7 -2394 0 -1842 3 -2389 12 -2398 9
-9 234 -12 950 -12 l938 0 0 669 c0 478 3 672 11 677 7 4 234 -216 548 -528
321 -321 560 -551 596 -575 139 -93 324 -168 530 -215 l100 -22 1513 -3 1512
-3 0 850 0 850 -1227 2 c-1163 3 -1231 4 -1282 22 -66 22 -124 75 -119 108 2
16 41 48 142 115 377 253 541 445 655 766 62 178 75 267 75 522 0 201 -2 243
-22 332 -123 563 -549 993 -1157 1167 -268 76 -109 70 -2036 74 -949 1 -1728
-1 -1732 -4z m3048 -1383 c84 -33 157 -108 179 -180 47 -161 -11 -307 -148
-372 l-61 -29 -542 0 c-526 0 -543 1 -553 19 -6 12 -10 123 -10 290 0 235 2
272 16 286 15 14 68 16 538 13 l521 -3 60 -24z"/>
<path d="M3465 9810 c-7 -12 1460 -4767 1477 -4788 15 -18 1591 -18 1606 1 7
9 465 1470 549 1750 7 26 19 47 26 47 9 0 109 -320 282 -892 148 -491 273
-899 278 -905 7 -10 182 -13 813 -13 755 0 804 1 813 18 5 9 313 1018 686
2242 372 1224 697 2292 722 2373 24 82 42 155 39 163 -5 12 -128 14 -908 12
l-903 -3 -186 -623 c-102 -343 -191 -628 -197 -634 -8 -8 -14 -4 -21 13 -6 13
-92 285 -191 604 -100 319 -186 595 -191 613 l-11 32 -994 0 c-933 0 -995 -1
-1001 -17 -4 -10 -84 -294 -178 -633 -116 -416 -176 -615 -185 -615 -9 0 -75
209 -200 630 l-186 630 -966 3 c-655 1 -969 -1 -973 -8z"/>
<path d="M11588 9803 c-13 -15 -604 -1954 -1259 -4133 -99 -327 -181 -601
-184 -608 -2 -7 4 -21 15 -32 20 -20 37 -20 879 -20 675 0 861 3 869 12 5 7
54 155 107 328 54 173 104 325 112 338 l13 22 805 0 805 0 14 -22 c8 -13 58
-160 111 -328 53 -168 103 -315 111 -328 l14 -22 845 0 c816 0 846 1 864 19
22 22 106 -257 -820 2731 -681 2196 -627 2027 -645 2045 -14 13 -173 15 -1328
15 -1238 0 -1314 -1 -1328 -17z m1418 -1590 c20 -65 108 -350 195 -633 148
-480 158 -516 144 -537 l-15 -23 -368 0 c-385 0 -392 1 -392 44 0 27 383 1266
392 1266 4 0 23 -53 44 -117z"/>
<path d="M16130 7425 c0 -2357 0 -2394 19 -2405 13 -7 328 -10 950 -10 l931 0
0 675 c0 655 1 675 19 675 12 0 215 -198 532 -519 283 -285 542 -538 576 -563
185 -135 454 -229 738 -258 78 -8 656 -10 2015 -7 l1905 3 113 22 c294 57 548
185 753 379 209 199 353 463 420 765 27 122 36 388 19 525 -26 211 -96 417
-197 585 -86 143 -232 314 -625 730 -93 98 -168 186 -168 196 0 10 5 23 12 30
9 9 290 12 1205 12 l1193 0 0 780 0 780 -1577 0 c-1711 0 -1628 2 -1838 -55
-124 -34 -299 -104 -410 -166 -363 -201 -639 -593 -701 -1001 -20 -132 -13
-343 16 -480 50 -236 163 -489 296 -663 66 -86 142 -172 393 -438 108 -115
200 -217 205 -228 6 -12 4 -26 -8 -44 l-16 -25 -1240 0 c-1260 0 -1303 1
-1374 37 -41 21 -76 62 -76 89 0 25 2 27 140 116 368 236 563 469 668 798 57
177 67 252 66 495 0 233 -12 325 -65 485 -161 494 -603 880 -1173 1025 -224
57 -157 55 -2010 55 l-1706 0 0 -2395z m3070 1004 c30 -14 70 -38 88 -54 78
-65 111 -204 77 -321 -23 -78 -94 -152 -178 -183 -56 -20 -71 -21 -582 -21
-463 0 -525 2 -539 16 -14 13 -16 54 -16 293 0 206 3 280 12 289 10 10 134 12
548 10 l535 -3 55 -26z"/>
</g>
</svg>
